# xmcd
#
# Track frame offsets: 
#        150
#        15755
#        27645
#        42310
#        63346
#        74189
#        90329
#        106664
#        120268
#        137543
#        152241
#        168826
#        186841
#        199743
#        214448
#        229061
#
# Disc length: 3258 seconds
#
# Revision: 2
# Processed by: cddbd v1.5.2PL0 Copyright (c) Steve Scherf et al.
# Submitted via: ExactAudioCopyFreeDBPlugin 1.0
#
DISCID=d40cb810
DTITLE=Various Artist - Trucker und Country Musik
DYEAR=2004
DGENRE=Country
TTITLE0=Peter Hinnen - El Rancho grande (Auf meriner Ranch bin ich Kön
TTITLE0=ig)
TTITLE1=Benny Maro - Rosalie aus Tennessee
TTITLE2=Cissy - Einen Trucker legst Du niemals an die Leine
TTITLE3=Gunter Gabriel - 30-Tonner Diesel
TTITLE4=Cissy - Truckerfeste
TTITLE5=Gudrun Lange and Kactus - Mitten ins Herz
TTITLE6=Tennessee - Hey Mädchen du träumst
TTITLE7=Howdy der Alpenrocker - Tiroler Obstler
TTITLE8=Gudrun Lange and Kactus - In einer fremden Stadt
TTITLE9=Rugy and Howard - Bleifuss und Vollgas
TTITLE10=Tennessee - Komm mit mir
TTITLE11=Gudrun Lange and Kactus - Immer unterwegs
TTITLE12=Tennessee - Immer wenn ich down bin
TTITLE13=Dave Dudley - Im Stau
TTITLE14=Tennessee - Derr heisse Wind
TTITLE15=Cissy - Ich steh' am Fenster
EXTD=FlexMedia TS005\n4260043122824
EXTT0=
EXTT1=
EXTT2=
EXTT3=
EXTT4=
EXTT5=
EXTT6=
EXTT7=
EXTT8=
EXTT9=
EXTT10=
EXTT11=
EXTT12=
EXTT13=
EXTT14=
EXTT15=
PLAYORDER=
